<?xml version="1.0" encoding="utf-8"?>
<!-- Generator: Adobe Illustrator 21.1.0, SVG Export Plug-In . SVG Version: 6.00 Build 0)  -->
<svg version="1.1" id="Layer_1" xmlns="http://www.w3.org/2000/svg" xmlns:xlink="http://www.w3.org/1999/xlink" x="0px" y="0px"
	 viewBox="0 0 53 53" style="enable-background:new 0 0 53 53;" xml:space="preserve">
<g>
	<path d="M0,26.5C0,11.9,11.9,0,26.5,0l0,0C41.1,0,53,11.9,53,26.5l0,0C53,41.1,41.1,53,26.5,53l0,0C11.9,53,0,41.1,0,26.5L0,26.5z
		 M6,26.5C6,37.8,15.2,47,26.5,47l0,0C37.8,47,47,37.8,47,26.5l0,0C47,15.2,37.8,6,26.5,6l0,0C15.2,6,6,15.2,6,26.5L6,26.5z"/>
</g>
</svg>
